<?xml version="1.0" encoding="UTF-8" standalone="no"?>
<svg
   width="512"
   height="126.5618"
   viewBox="0 0 512 126.5618"
   fill="none"
   version="1.1"
   id="svg26"
   sodipodi:docname="Permata Bank (2024).svg"
   inkscape:version="1.1.1 (3bf5ae0d25, 2021-09-20)"
   xmlns:inkscape="http://www.inkscape.org/namespaces/inkscape"
   xmlns:sodipodi="http://sodipodi.sourceforge.net/DTD/sodipodi-0.dtd"
   xmlns="http://www.w3.org/2000/svg"
   xmlns:svg="http://www.w3.org/2000/svg">
  <defs
     id="defs30">
    <style
       id="style939">
      .cls-1 {
        fill: #0064ff;
      }
    </style>
  </defs>
  <sodipodi:namedview
     id="namedview28"
     pagecolor="#ffffff"
     bordercolor="#666666"
     borderopacity="1.0"
     inkscape:pageshadow="2"
     inkscape:pageopacity="0.0"
     inkscape:pagecheckerboard="0"
     showgrid="false"
     showguides="true"
     inkscape:guide-bbox="true"
     inkscape:zoom="0.26268222"
     inkscape:cx="43.779133"
     inkscape:cy="17.130965"
     inkscape:window-width="1366"
     inkscape:window-height="715"
     inkscape:window-x="-8"
     inkscape:window-y="-8"
     inkscape:window-maximized="1"
     inkscape:current-layer="svg26" />
  <path
     d="m 121.75849,43.870921 h 17.33695 c 9.55398,0 15.68187,5.860387 15.68187,13.783731 0,7.923631 -6.05051,13.910579 -15.68187,13.910579 H 130.304 v 15.973825 h -8.54551 z m 16.31554,21.15049 c 4.58959,0 8.15777,-2.303712 8.15777,-7.303478 0,-5.050104 -3.56818,-7.303191 -8.15777,-7.303191 H 130.304 v 14.594013 h 7.77003 z"
     fill="white"
     id="path2"
     style="fill:#030303;fill-opacity:1;stroke-width:2.8764" />
  <path
     d="m 155.84964,71.754211 c 0,-9.239874 6.05051,-16.720539 15.86308,-16.720539 11.40293,0 16.88449,9.113312 15.61744,18.910346 h -23.64577 c 0.56866,5.240234 3.30959,8.480503 8.48079,8.480503 3.6329,0 5.92136,-1.683559 7.13664,-4.303676 h 7.70503 c -1.84867,6.733663 -7.26551,10.353906 -15.03554,10.353906 -10.64011,0 -16.12167,-7.354104 -16.12167,-16.72054 z m 23.8917,-3.619955 c -0.6981,-4.303676 -3.30988,-7.050355 -8.09334,-7.050355 -4.46015,0 -6.94249,2.80996 -7.76974,7.050355 z"
     fill="white"
     id="path4"
     style="fill:#030303;fill-opacity:1;stroke-width:2.8764" />
  <path
     d="m 191.62348,55.970804 h 7.83475 v 5.746481 c 1.46093,-3.240269 4.97733,-5.986948 10.13559,-5.986948 h 0.45274 v 7.176629 h -0.45274 c -7.96362,0 -9.94172,5.430077 -9.94172,11.417025 v 13.227146 h -8.02862 z"
     fill="white"
     id="path6"
     style="fill:#030303;fill-opacity:1;stroke-width:2.8764" />
  <path
     d="m 213.22614,55.973106 h 7.83446 v 4.936197 c 1.78424,-3.683236 5.48157,-5.746481 9.55398,-5.746481 4.96467,0 8.41636,2.126526 10.13587,5.860387 2.17198,-3.619955 6.11524,-5.860387 10.39447,-5.860387 7.45966,0 11.33821,4.49352 11.33821,12.164027 v 20.213933 h -8.02862 V 68.706373 c 0,-4.493519 -1.84867,-7.113348 -5.80487,-7.113348 -4.26629,0 -6.74862,3.366831 -6.74862,9.113312 v 16.847101 h -8.09306 V 68.706373 c 0,-4.493519 -1.78394,-7.113348 -5.74015,-7.113348 -4.331,0 -6.81305,3.366831 -6.81305,9.113312 v 16.847101 h -8.02862 z"
     fill="white"
     id="path8"
     style="fill:#030303;fill-opacity:1;stroke-width:2.8764" />
  <path
     d="m 266.62084,71.752773 c 0,-9.670472 5.28769,-16.657258 14.27272,-16.657258 4.58959,0 8.02977,2.063245 10.20145,5.619919 v -4.746643 h 7.83245 v 31.567676 h -7.83245 v -4.733698 c -2.17168,3.493393 -5.61186,5.619919 -10.20145,5.619919 -8.98503,0 -14.27272,-6.999731 -14.27272,-16.669915 z m 16.1861,10.239712 c 5.28798,0 8.15863,-4.176827 8.15863,-10.227056 0,-6.050229 -2.87065,-10.227344 -8.15863,-10.227344 -5.2877,0 -8.15777,4.177115 -8.15777,10.227344 0,6.050229 2.93479,10.227056 8.15777,10.227056 z"
     fill="white"
     id="path10"
     style="fill:#030303;fill-opacity:1;stroke-width:2.8764" />
  <path
     d="m 307.20288,62.209438 h -4.9129 v -6.240072 h 4.9129 v -8.480503 h 8.09132 v 8.480503 h 6.44027 v 6.240072 h -6.44027 v 25.327605 h -8.09132 z"
     fill="white"
     id="path12"
     style="fill:#030303;fill-opacity:1;stroke-width:2.8764" />
  <path
     d="m 323.12953,71.752773 c 0,-9.670472 5.28683,-16.657258 14.27272,-16.657258 4.59074,0 8.02804,2.063245 10.19973,5.619919 v -4.746643 h 7.83532 v 31.567676 h -7.83532 v -4.733698 c -2.17169,3.493393 -5.60899,5.619919 -10.19973,5.619919 -8.98589,0 -14.27272,-6.999731 -14.27272,-16.669915 z m 16.18553,10.239712 c 5.28683,0 8.15748,-4.176827 8.15748,-10.227056 0,-6.050229 -2.87065,-10.227344 -8.15748,-10.227344 -5.28684,0 -8.15749,4.177115 -8.15749,10.227344 0,6.050229 2.93394,10.227056 8.15749,10.227056 z"
     fill="white"
     id="path14"
     style="fill:#030303;fill-opacity:1;stroke-width:2.8764" />
  <path
     d="m 371.35245,43.870921 h 17.97177 c 8.15749,0 13.44432,4.683075 13.44432,11.049708 0,4.493519 -2.48234,7.733789 -6.37411,9.354068 5.09411,1.430148 8.72701,5.493357 8.72701,10.796584 0,7.303479 -5.28683,12.480431 -14.46544,12.480431 H 371.34094 V 43.870921 Z m 16.57384,18.087407 c 3.8285,0 6.63299,-1.999964 6.63299,-5.986948 0,-3.987272 -3.00009,-5.797106 -6.69627,-5.797106 h -8.15748 v 11.79671 h 8.22076 z m 1.39793,19.290032 c 4.01834,0 7.39524,-1.999964 7.39524,-6.620045 0,-4.556513 -3.3769,-6.670382 -7.70589,-6.670382 h -9.30804 V 81.24836 Z"
     fill="white"
     id="path16"
     style="fill:#030303;fill-opacity:1;stroke-width:2.8764" />
  <path
     d="m 407.81088,71.752773 c 0,-9.670472 5.28683,-16.657258 14.27272,-16.657258 4.58786,0 8.02804,2.063245 10.19973,5.619919 v -4.746643 h 7.83532 v 31.567676 h -7.83532 v -4.733698 c -2.17169,3.493393 -5.61187,5.619919 -10.19973,5.619919 -8.98589,0 -14.27272,-6.999731 -14.27272,-16.669915 z m 16.18552,10.239712 c 5.28684,0 8.15749,-4.176827 8.15749,-10.227056 0,-6.050229 -2.87065,-10.227344 -8.15749,-10.227344 -5.28683,0 -8.15748,4.177115 -8.15748,10.227344 0,6.050229 2.93393,10.227056 8.15748,10.227056 z"
     fill="white"
     id="path18"
     style="fill:#030303;fill-opacity:1;stroke-width:2.8764" />
  <path
     d="m 446.0009,55.973106 h 7.83245 v 4.986822 c 1.84953,-3.746517 5.80458,-5.797106 9.94373,-5.797106 7.58795,0 11.5315,4.49352 11.5315,12.164027 v 20.213933 h -8.02804 V 68.706373 c 0,-4.493519 -1.91281,-7.113348 -6.11524,-7.113348 -4.52458,0 -7.13636,3.366831 -7.13636,9.113312 v 16.847101 h -8.02804 z"
     fill="white"
     id="path20"
     style="fill:#030303;fill-opacity:1;stroke-width:2.8764" />
  <path
     d="m 489.1182,72.19804 v 15.353672 h -8.03092 V 43.870921 h 8.03092 v 25.08685 l 11.53151,-12.973735 h 9.61869 L 497.14625,70.274301 512,87.551712 h -9.87757 z"
     fill="white"
     id="path22"
     style="fill:#030303;fill-opacity:1;stroke-width:2.8764" />
  <path
     d="M 87.757375,50.465366 48.481222,0 9.2178984,50.465366 C 2.5856633,59.009151 0,66.438903 0,74.514409 0,86.855335 6.3090193,97.930643 17.60837,105.67709 L 48.468279,126.5618 79.341016,105.67709 C 90.653339,97.930643 96.949501,86.842679 96.949501,74.514409 96.962445,66.45156 94.376557,59.009151 87.757375,50.465366 Z M 42.185061,103.6265 v 7.4427 L 23.28389,98.411578 C 14.402157,92.563847 9.3859667,83.855533 9.3859667,74.995344 c 0,-4.582113 1.2928293,-9.012063 3.5552643,-13.138265 0.969636,2.68311 2.585687,5.379164 6.140951,9.341123 l 20.038933,21.833924 c 3.218984,3.632899 3.063946,5.84773 3.063946,10.594374 z M 27.31753,66.45156 c -5.016191,-5.379452 -5.972883,-8.379254 -5.972883,-11.543587 0,-3.012458 0.646415,-5.695856 4.524901,-10.607029 l 22.624618,-28.795571 22.62436,28.795571 c 3.723505,4.911173 4.525159,7.594571 4.525159,10.607029 0,3.164333 -0.969636,6.176791 -5.972854,11.543587 L 48.481222,89.551389 Z M 73.69147,98.411578 54.790328,111.0692 v -7.4427 c 0,-4.746644 -0.155326,-6.961475 3.07689,-10.60703 l 20.03876,-21.833924 c 3.555235,-3.949303 5.171487,-6.645357 6.141123,-9.341124 2.262292,4.113547 3.555236,8.543497 3.555236,13.138266 -0.01294,8.872845 -5.016162,17.568503 -13.910867,23.42889 z"
     fill="white"
     id="path24"
     style="fill:#0064ff;fill-opacity:1;stroke-width:2.8764" />
</svg>
